<svg xmlns="http://www.w3.org/2000/svg" width="209.538" height="40" viewBox="0 0 209.538 40"><g fill="#FFF"><path d="M11.29 40C4.598 36.723 0 29.941 0 22.101c0-11.042 9.067-19.78 20.325-19.78 4.076 0 8.49 2.334 8.49 2.334a17.587 17.587 0 0 0-7.521-1.679c-9.593 0-17.366 7.627-17.366 17.034 0 6.748 3.999 12.578 9.801 15.336L11.29 40M31.27 0c6.692 3.277 11.288 10.062 11.288 17.896 0 11.043-9.065 19.784-20.322 19.784-4.077 0-8.491-2.336-8.491-2.336a17.54 17.54 0 0 0 7.522 1.677c9.59 0 17.364-7.625 17.364-17.032 0-6.749-3.999-12.581-9.8-15.335L31.27 0M50.336 12.551H60.47c2.793 0 5.542.88 5.542 3.894 0 2.174-1.178 3.33-3.326 3.874v.045c2.24.294 3.625 2.013 3.625 3.6 0 3.986-3.277 4.396-6.626 4.396h-9.349V12.551zm5.818 6.044H57.7c1.085 0 2.264-.315 2.264-1.517 0-1.179-1.017-1.539-2.125-1.539h-1.685v3.056zm0 6.5h1.617c1.131 0 2.354-.408 2.354-1.63 0-1.356-1.154-1.608-2.311-1.608h-1.661v3.238zM72.961 15.311h-5.818v-3.938h5.818v3.938zm-5.818 1.248h5.818v11.799h-5.818V16.559zM80.855 16.287c4.849 0 7.479 1.993 7.479 5.955 0 4.077-2.631 6.384-7.479 6.384-4.871 0-7.456-2.307-7.456-6.384 0-3.962 2.586-5.955 7.456-5.955zm0 8.944c1.131 0 1.292-1.269 1.292-2.989 0-1.405-.162-2.56-1.292-2.56s-1.27 1.155-1.27 2.56c.001 1.72.14 2.989 1.27 2.989z"/><g><path d="M89.948 12.551h9.143l2.1 8.648h.047l2.077-8.648h9.119v15.808h-5.54l-.092-12.412h-.047l-3.163 12.412h-5.149l-3.07-12.412h-.093l-.07 12.412h-5.262V12.551zM118.551 23.826c.093 1.472 1.501 1.812 3.209 1.812 1.593 0 3.025-.271 3.947-.748v3.058c-1.547.475-3.392.678-5.425.678-4.873 0-7.456-2.307-7.456-6.384 0-3.962 2.583-5.955 7.456-5.955 4.664 0 6.302 2.853 6.302 6.837v.702h-8.033zm2.999-2.491c0-.908-.137-2.331-1.451-2.331-1.341 0-1.641 1.404-1.569 2.331h3.02zM135.928 28.358v-2.153h-.048c-.808 1.768-1.985 2.421-3.88 2.421-3.854 0-5.286-2.943-5.286-6.36 0-3.194 1.501-5.979 5.125-5.979 1.549 0 2.725.519 3.626 1.787h.046v-6.701h5.817v16.985h-5.4zm-1.733-8.541c-1.224 0-1.433 1.223-1.433 2.448 0 1.243.209 2.559 1.479 2.559 1.247 0 1.43-1.316 1.43-2.425.001-1.358-.182-2.582-1.476-2.582z"/></g><g><path d="M159.258 25.843l-.467.235c-.828.416-2.06.664-3.292.664-3.816 0-6.096-2.417-6.096-6.463 0-4.206 2.347-6.716 6.279-6.716 1.129 0 2.229.225 3.016.617l.453.228.716-1.784-.374-.196c-.532-.278-1.737-.744-3.833-.744-4.898 0-8.319 3.525-8.319 8.572 0 6.191 4.209 8.387 7.813 8.387 1.732 0 3.373-.321 4.388-.86l.36-.191-.644-1.749zM165.676 16.15c-3.204 0-5.442 2.653-5.442 6.454 0 3.612 2.26 6.039 5.625 6.039 2.102 0 3.292-.541 3.706-.773l.33-.186-.552-1.753-.487.234c-.62.3-1.396.576-2.86.576-1.339 0-3.55-.532-3.731-3.993h8.036l.088-.354c.061-.239.061-.455.061-.781-.002-2.028-1.007-5.463-4.774-5.463zm-.14 1.833c.807 0 1.452.241 1.923.718.649.66.837 1.628.887 2.239h-5.947c.307-1.462 1.263-2.957 3.137-2.957zM177.347 16.15c-1.335 0-2.578.526-3.438 1.408l-.053-1.154h-1.954l.038.694c.042.784.082 1.495.082 2.421v8.873h2.016v-7.307c0-.268.052-.591.14-.854.398-1.296 1.577-2.202 2.87-2.202 2.145 0 2.595 1.825 2.595 3.355v7.008h2.019v-7.1c-.001-3.796-2.325-5.142-4.315-5.142zM189.671 18.213v-1.809h-3.153v-2.648l-2.041.765v1.883h-1.866v1.809h1.866v6.532c0 1.356.265 2.317.79 2.913.498.636 1.299.985 2.257.985.675 0 1.257-.105 1.731-.316l.33-.146-.282-1.745-.519.169a3.689 3.689 0 0 1-1.124.159c-.372 0-1.143 0-1.143-1.835v-6.716h3.154zM196.027 16.202c-1.231-.202-2.458.314-3.281 1.281l-.022-1.079h-1.96l.021.488c.045 1.052.092 2.196.092 3.294v8.206h2.016v-6.571c0-.346.045-.689.088-.981.278-1.637 1.236-2.695 2.439-2.695.185 0 .307 0 .405.028l.594.164v-2.069l-.392-.066zM205.321 27.863a19.695 19.695 0 0 1-.155-2.565v-4.306c0-4.003-2.319-4.842-4.266-4.842-1.233 0-2.536.383-3.486 1.024l-.321.216.729 1.703.475-.35c.649-.476 1.531-.738 2.528-.738 1.532 0 2.275.832 2.323 2.613-4.292.067-6.746 1.705-6.746 4.519 0 1.742 1.276 3.506 3.716 3.506 1.399 0 2.494-.552 3.229-1.233l.101.982h1.947l-.074-.529zm-5.091-1.075c-.409 0-1.744-.132-1.744-1.836 0-1.651 1.557-2.487 4.626-2.487h.037v1.912c0 .145-.032.322-.089.51-.162.446-.84 1.901-2.83 1.901zM207.521 11.107h2.018v17.285h-2.018z"/></g></g></svg>