<?xml version="1.0" encoding="utf-8"?>
<!-- Generator: Adobe Illustrator 16.0.4, SVG Export Plug-In . SVG Version: 6.00 Build 0)  -->
<!DOCTYPE svg PUBLIC "-//W3C//DTD SVG 1.1//EN" "http://www.w3.org/Graphics/SVG/1.1/DTD/svg11.dtd">
<svg version="1.1" id="Layer_1" xmlns="http://www.w3.org/2000/svg" xmlns:xlink="http://www.w3.org/1999/xlink" x="0px" y="0px"
	 width="180px" height="35px" viewBox="81.043 181.611 180 35" enable-background="new 81.043 181.611 180 35" xml:space="preserve"
	>
<path fill="#296EB6" d="M90.997,216.611c-5.9-2.869-9.954-8.802-9.954-15.662c0-9.664,7.993-17.308,17.919-17.308
	c3.594,0,7.486,2.042,7.486,2.042c-2.007-0.94-4.256-1.47-6.632-1.47c-8.456,0-15.311,6.674-15.311,14.905
	c0,5.905,3.526,11.004,8.642,13.42L90.997,216.611"/>
<path fill="#839DD1" d="M92.564,212.86c-0.232-0.42-1.932,2.721-1.726,3.142C91.306,215.42,92.558,212.993,92.564,212.86
	 M91.398,212.228c-0.426-0.269-1.084-0.747-1.479-1.077c-0.993-0.87-2.918-2.819-3.762-4.266c-0.682-1.014-1.812-2.86-2.028-3.216
	c-0.215-0.357-1.124-2.216-1.124-2.216s-0.99-2.224-0.99-3.514c0-0.175-0.062-1.083,0.023-1.866
	c-0.346,1.015-0.438,1.565-0.51,1.971c-0.07,0.404-0.163,1.159-0.225,1.694c-0.077,0.644-0.039,1.162-0.039,1.895
	c-0.156,2.106,1.048,5.741,1.711,6.953c0.163,0.338,1.233,2.502,2.491,3.725c-1.041-1.611-2.262-4.012-2.61-5.099
	c-0.141-0.438-0.363-1.457-0.586-2.17c-0.278-0.896-0.462-2.303-0.191-2.762c0.757-0.045,1.353,1.531,1.678,2.062
	c0.57,0.926,1.195,1.802,1.797,2.688c0.659,0.968,1.447,1.913,2.291,2.737c0.759,0.743,1.216,1.043,2.077,1.688
	c0.3,0.225,1.546,1.034,2.348,1.309L91.398,212.228"/>
<path fill="#005B5B" d="M108.613,181.611c5.9,2.868,9.952,8.805,9.952,15.661c0,9.662-7.993,17.31-17.918,17.31
	c-3.594,0-7.486-2.045-7.486-2.045c2.006,0.943,4.257,1.469,6.632,1.469c8.457,0,15.309-6.671,15.309-14.903
	c0-5.903-3.525-11.006-8.64-13.417L108.613,181.611"/>
<path fill="#519AA1" d="M107.146,185.248c0.293,0.049,2.114-3.143,1.726-3.143C108.614,181.979,106.756,185.248,107.146,185.248
	 M108.212,185.995c0.425,0.267,1.083,0.747,1.477,1.08c0.993,0.867,2.917,2.817,3.764,4.264c0.682,1.012,1.812,2.859,2.028,3.216
	c0.216,0.355,1.124,2.216,1.124,2.216s0.988,2.223,0.988,3.51c0,0.177,0.062,1.085-0.024,1.869c0.347-1.018,0.44-1.565,0.513-1.971
	c0.07-0.403,0.163-1.159,0.223-1.691c0.076-0.647,0.04-1.166,0.04-1.896c0.154-2.108-1.047-5.741-1.712-6.953
	c-0.162-0.337-1.234-2.502-2.49-3.725c1.04,1.612,2.261,4.014,2.609,5.101c0.141,0.438,0.363,1.453,0.584,2.167
	c0.277,0.897,0.461,2.305,0.192,2.764c-0.759,0.045-1.353-1.529-1.678-2.061c-0.571-0.927-1.194-1.804-1.797-2.688
	c-0.661-0.969-1.448-1.916-2.292-2.738c-0.758-0.742-1.215-1.044-2.075-1.688c-0.3-0.226-1.547-1.033-2.348-1.31L108.212,185.995"/>
<path fill="#296EB6" d="M125.488,187.424h8.575c2.364,0,4.688,0.738,4.688,3.27c0,1.827-0.996,2.796-2.812,3.253v0.038
	c1.895,0.247,3.066,1.69,3.066,3.024c0,3.345-2.772,3.688-5.606,3.688h-7.908L125.488,187.424L125.488,187.424z M130.412,192.5
	h1.307c0.919,0,1.915-0.266,1.915-1.274c0-0.99-0.86-1.293-1.798-1.293h-1.426L130.412,192.5L130.412,192.5z M130.412,197.957h1.367
	c0.958,0,1.992-0.343,1.992-1.37c0-1.14-0.979-1.35-1.955-1.35h-1.404V197.957z M144.631,189.742h-4.924v-3.309h4.924V189.742z
	 M139.708,190.79h4.924v9.907h-4.924V190.79z M151.311,190.562c4.101,0,6.329,1.673,6.329,5.002c0,3.423-2.227,5.36-6.329,5.36
	c-4.123,0-6.309-1.937-6.309-5.36C145.003,192.234,147.188,190.562,151.311,190.562z M151.311,198.072
	c0.959,0,1.093-1.064,1.093-2.511c0-1.181-0.136-2.15-1.093-2.15c-0.956,0-1.074,0.968-1.074,2.15
	C150.238,197.008,150.354,198.072,151.311,198.072z"/>
<path fill="#005B5B" d="M159.004,187.424h7.734l1.777,7.263h0.04l1.758-7.263h7.716v13.273h-4.688l-0.077-10.424h-0.04
	l-2.675,10.424h-4.356l-2.599-10.424h-0.079l-0.059,10.424h-4.452V187.424L159.004,187.424z M183.207,196.892
	c0.077,1.238,1.269,1.522,2.716,1.522c1.348,0,2.56-0.227,3.342-0.628v2.567c-1.311,0.398-2.873,0.57-4.592,0.57
	c-4.121,0-6.309-1.938-6.309-5.362c0-3.327,2.188-5.002,6.309-5.002c3.947,0,5.333,2.396,5.333,5.743v0.588L183.207,196.892
	L183.207,196.892z M185.745,194.8c0-0.762-0.116-1.957-1.23-1.957c-1.132,0-1.386,1.181-1.326,1.957H185.745z M197.909,200.697
	v-1.809h-0.042c-0.683,1.485-1.68,2.035-3.281,2.035c-3.261,0-4.471-2.472-4.471-5.343c0-2.681,1.269-5.019,4.336-5.019
	c1.309,0,2.304,0.437,3.067,1.502h0.039v-5.629h4.922v14.264h-4.57V200.697L197.909,200.697z M196.443,193.526
	c-1.035,0-1.213,1.027-1.213,2.056c0,1.044,0.178,2.15,1.252,2.15c1.056,0,1.212-1.106,1.212-2.036
	C197.694,194.554,197.537,193.526,196.443,193.526L196.443,193.526z"/>
<path fill="#1D1D1B" stroke="#1D1D1B" stroke-width="0.75" d="M217.703,199.869c-0.663,0.348-1.929,0.677-3.526,0.677
	c-3.178,0-6.216-2.03-6.216-6.651c0-3.867,2.515-6.808,6.645-6.808c1.677,0,2.65,0.369,3.06,0.581l-0.313,0.774
	c-0.662-0.329-1.614-0.562-2.726-0.562c-3.546,0-5.708,2.282-5.708,6.032c0,3.541,2.043,5.82,5.553,5.82
	c1.129,0,2.221-0.231,2.96-0.6L217.703,199.869z M219.785,195.595c0,2.978,1.637,4.139,3.566,4.139c1.363,0,2.065-0.271,2.592-0.522
	l0.234,0.734c-0.351,0.194-1.306,0.6-2.942,0.6c-2.688,0-4.362-1.955-4.362-4.68c0-3.095,1.79-5.029,4.208-5.029
	c3.057,0,3.641,2.862,3.641,4.197c0,0.25,0,0.404-0.038,0.562H219.785L219.785,195.595z M225.748,194.861
	c0.019-1.295-0.527-3.268-2.786-3.268c-2.067,0-2.963,1.836-3.118,3.268H225.748L225.748,194.861z M228.843,193.274
	c0-0.851-0.04-1.487-0.08-2.222h0.859l0.078,1.681h0.039c0.506-1.045,1.677-1.895,3.215-1.895c0.897,0,3.254,0.444,3.254,3.925
	v5.568h-0.915v-5.492c0-1.682-0.665-3.211-2.593-3.211c-1.325,0-2.435,0.928-2.807,2.128c-0.077,0.23-0.136,0.541-0.136,0.831v5.743
	h-0.915V193.274L228.843,193.274L228.843,193.274z M240.318,189.001v2.051h2.669v0.734h-2.669v6.034c0,1.18,0.371,1.933,1.363,1.933
	c0.486,0,0.838-0.079,1.071-0.155l0.118,0.716c-0.312,0.137-0.742,0.232-1.306,0.232c-0.682,0-1.247-0.232-1.599-0.677
	c-0.429-0.483-0.584-1.256-0.584-2.205v-5.878h-1.578v-0.734h1.578v-1.702L240.318,189.001L240.318,189.001z M244.797,193.836
	c0-0.928-0.039-1.896-0.079-2.784h0.859l0.039,1.874h0.04c0.407-1.159,1.383-2.088,2.669-2.088c0.116,0,0.252,0.019,0.37,0.04v0.891
	c-0.137-0.039-0.274-0.039-0.447-0.039c-1.286,0-2.202,1.102-2.455,2.59c-0.04,0.271-0.079,0.58-0.079,0.89v5.125h-0.917V193.836
	L244.797,193.836z M256.096,198.128c0,0.736,0.042,1.489,0.14,2.204h-0.839L255.26,199h-0.058c-0.448,0.714-1.482,1.546-2.984,1.546
	c-1.869,0-2.746-1.314-2.746-2.553c0-2.146,1.909-3.442,5.709-3.403v-0.232c0-0.928-0.175-2.766-2.396-2.745
	c-0.819,0-1.677,0.212-2.339,0.696l-0.292-0.678c0.838-0.561,1.89-0.793,2.729-0.793c2.709,0,3.213,2.012,3.213,3.674V198.128
	L256.096,198.128z M255.181,195.364c-2.044-0.059-4.734,0.251-4.734,2.476c0,1.333,0.897,1.933,1.87,1.933
	c1.559,0,2.437-0.949,2.768-1.856c0.059-0.193,0.097-0.387,0.097-0.562V195.364L255.181,195.364z M258.881,186.604h0.917v13.728
	h-0.917V186.604z"/>
<path fill="#1D1D1B" d="M127.73,205.331h-2.461v-0.698h5.746v0.698h-2.461v7.419h-0.825L127.73,205.331L127.73,205.331z
	 M132.068,204.027h0.752v3.792h0.024c0.323-0.652,1.005-1.14,1.9-1.14c1.637,0,2.079,1.058,2.079,2.522v3.548h-0.754v-3.536
	c0-1.023-0.202-1.908-1.446-1.908c-1.337,0-1.804,1.233-1.804,2.269v3.174h-0.753L132.068,204.027L132.068,204.027z
	 M142.798,212.565c-0.527,0.209-1.207,0.325-1.77,0.325c-2.02,0-2.771-1.326-2.771-3.105c0-1.813,1.027-3.104,2.569-3.104
	c1.72,0,2.426,1.349,2.426,2.942v0.373h-4.171c0,1.254,0.693,2.269,2.007,2.269c0.55,0,1.351-0.221,1.71-0.442V212.565
	L142.798,212.565z M142.428,209.366c0-1.035-0.43-2.06-1.553-2.06c-1.111,0-1.793,1.084-1.793,2.06H142.428z M151.376,204.494
	c2.51,0,3.691,2,3.669,4.196c-0.024,2.489-1.267,4.199-3.669,4.199c-2.401,0-3.644-1.71-3.668-4.199
	C147.685,206.492,148.869,204.494,151.376,204.494z M148.534,208.692c0,1.721,0.884,3.5,2.843,3.5c1.96,0,2.845-1.779,2.845-3.5
	c0-1.722-0.885-3.502-2.845-3.502C149.418,205.189,148.534,206.971,148.534,208.692z M156.563,206.819h0.754l-0.049,1.081h0.024
	c0.189-0.325,0.657-1.22,1.947-1.22c1.791,0,2.508,1.303,2.508,3.104c0,1.756-0.834,3.105-2.508,3.105c-0.958,0-1.53-0.385-1.9-1.15
	h-0.024v3.453h-0.754L156.563,206.819L156.563,206.819L156.563,206.819z M159.121,207.307c-1.339,0-1.804,1.396-1.804,2.479
	s0.465,2.479,1.804,2.479c1.435,0,1.804-1.327,1.804-2.479C160.924,208.634,160.555,207.307,159.121,207.307z M167.365,212.565
	c-0.525,0.209-1.207,0.325-1.769,0.325c-2.021,0-2.772-1.326-2.772-3.105c0-1.813,1.027-3.104,2.569-3.104
	c1.72,0,2.425,1.349,2.425,2.942v0.373h-4.17c0,1.254,0.694,2.269,2.008,2.269c0.549,0,1.351-0.221,1.708-0.442L167.365,212.565
	L167.365,212.565z M166.994,209.366c0-1.035-0.43-2.06-1.553-2.06c-1.111,0-1.792,1.084-1.792,2.06H166.994z M169.252,208.215
	c0-0.454,0-0.92-0.048-1.396h0.73v1.058h0.024c0.249-0.535,0.703-1.198,1.972-1.198c1.505,0,2.078,0.978,2.078,2.28v3.791h-0.753
	v-3.606c0-1.117-0.406-1.837-1.445-1.837c-1.374,0-1.806,1.177-1.806,2.163v3.28h-0.753V208.215L169.252,208.215L169.252,208.215z
	 M181.847,204.632h0.932l3.311,8.118h-0.861l-0.896-2.176h-4.205l-0.896,2.176h-0.801L181.847,204.632z M182.253,205.4l-1.816,4.479
	h3.621L182.253,205.4z M191.155,207.61c-0.407-0.175-0.896-0.304-1.304-0.304c-1.469,0-2.292,1.036-2.292,2.479
	c0,1.351,0.834,2.479,2.21,2.479c0.477,0,0.919-0.105,1.372-0.27l0.072,0.687c-0.514,0.176-0.992,0.211-1.563,0.211
	c-1.961,0-2.918-1.453-2.918-3.105c0-1.827,1.209-3.103,3.013-3.103c0.729,0,1.255,0.162,1.469,0.231L191.155,207.61L191.155,207.61
	z M196.46,207.61c-0.408-0.175-0.896-0.304-1.304-0.304c-1.469,0-2.294,1.036-2.294,2.479c0,1.351,0.838,2.479,2.212,2.479
	c0.476,0,0.918-0.105,1.372-0.27l0.072,0.687c-0.513,0.176-0.99,0.211-1.565,0.211c-1.96,0-2.915-1.453-2.915-3.105
	c0-1.827,1.208-3.103,3.012-3.103c0.729,0,1.255,0.162,1.469,0.231L196.46,207.61L196.46,207.61z M201.884,212.565
	c-0.527,0.209-1.206,0.325-1.769,0.325c-2.02,0-2.773-1.326-2.773-3.105c0-1.813,1.027-3.104,2.57-3.104
	c1.72,0,2.426,1.349,2.426,2.942v0.373h-4.17c0,1.254,0.692,2.269,2.007,2.269c0.55,0,1.352-0.221,1.71-0.442L201.884,212.565z
	 M201.515,209.366c0-1.035-0.43-2.06-1.553-2.06c-1.111,0-1.793,1.084-1.793,2.06H201.515L201.515,209.366z M203.306,211.891
	c0.456,0.221,1.005,0.372,1.591,0.372c0.717,0,1.351-0.383,1.351-1.058c0-1.408-2.928-1.185-2.928-2.906
	c0-1.176,0.98-1.616,1.981-1.616c0.324,0,0.971,0.07,1.509,0.268l-0.073,0.638c-0.395-0.174-0.932-0.278-1.351-0.278
	c-0.776,0-1.314,0.234-1.314,0.989c0,1.104,2.999,0.965,2.999,2.906c0,1.255-1.206,1.687-2.128,1.687
	c-0.586,0-1.171-0.071-1.709-0.278L203.306,211.891L203.306,211.891z M207.954,211.891c0.454,0.221,1.005,0.372,1.59,0.372
	c0.717,0,1.352-0.383,1.352-1.058c0-1.408-2.928-1.185-2.928-2.906c0-1.176,0.979-1.616,1.981-1.616c0.322,0,0.969,0.07,1.506,0.268
	l-0.07,0.638c-0.396-0.174-0.932-0.278-1.352-0.278c-0.776,0-1.314,0.234-1.314,0.989c0,1.104,2.999,0.965,2.999,2.906
	c0,1.255-1.206,1.687-2.128,1.687c-0.585,0-1.171-0.071-1.71-0.278L207.954,211.891L207.954,211.891z M216.474,204.632h2.056
	c1.563,0,2.581,0.767,2.581,2.303c0,1.512-1.171,2.303-2.664,2.303h-1.148v3.513h-0.823L216.474,204.632L216.474,204.632z
	 M217.297,208.54h0.572c1.242,0,2.413-0.14,2.413-1.604c0-1.023-0.596-1.603-1.647-1.603h-1.339v3.209h0.001V208.54L217.297,208.54z
	 M227.121,211.355c0,0.452,0,0.92,0.047,1.395h-0.728v-1.057h-0.024c-0.25,0.536-0.704,1.198-1.972,1.198
	c-1.506,0-2.077-0.979-2.077-2.28v-3.792h0.752v3.607c0,1.117,0.407,1.836,1.446,1.836c1.374,0,1.804-1.176,1.804-2.164v-3.279
	h0.755L227.121,211.355L227.121,211.355z M228.938,204.027h0.752v3.792h0.024c0.106-0.292,0.704-1.14,1.9-1.14
	c1.792,0,2.509,1.302,2.509,3.104c0,1.756-0.836,3.106-2.509,3.106c-0.872,0-1.495-0.326-1.9-1.083h-0.024v0.941h-0.752V204.027z
	 M231.495,207.307c-1.375,0-1.805,1.396-1.805,2.479s0.466,2.479,1.805,2.479c1.434,0,1.804-1.327,1.804-2.479
	C233.298,208.634,232.928,207.307,231.495,207.307z M235.653,204.027h0.754v8.723h-0.754V204.027z M239.058,205.238h-0.754v-0.979
	h0.754V205.238z M238.304,206.819h0.754v5.931h-0.754V206.819z M240.491,211.891c0.453,0.221,1.002,0.372,1.589,0.372
	c0.717,0,1.352-0.383,1.352-1.058c0-1.408-2.929-1.185-2.929-2.906c0-1.176,0.979-1.616,1.984-1.616c0.322,0,0.966,0.07,1.505,0.268
	l-0.071,0.638c-0.393-0.174-0.932-0.278-1.352-0.278c-0.776,0-1.314,0.234-1.314,0.989c0,1.104,2.999,0.965,2.999,2.906
	c0,1.255-1.206,1.687-2.128,1.687c-0.584,0-1.169-0.071-1.708-0.278L240.491,211.891L240.491,211.891z M245.605,204.027h0.752v3.792
	h0.024c0.321-0.652,1.003-1.14,1.899-1.14c1.638,0,2.079,1.058,2.079,2.522v3.548h-0.752v-3.536c0-1.023-0.205-1.908-1.447-1.908
	c-1.339,0-1.805,1.233-1.805,2.269v3.174h-0.752L245.605,204.027L245.605,204.027L245.605,204.027z M256.335,212.565
	c-0.527,0.209-1.206,0.325-1.769,0.325c-2.021,0-2.773-1.326-2.773-3.105c0-1.813,1.027-3.104,2.568-3.104
	c1.72,0,2.426,1.349,2.426,2.942v0.373h-4.168c0,1.254,0.693,2.269,2.005,2.269c0.552,0,1.352-0.22,1.712-0.442L256.335,212.565z
	 M255.965,209.366c0-1.035-0.432-2.06-1.553-2.06c-1.111,0-1.792,1.084-1.792,2.06H255.965z M258.223,208.146
	c0-0.651,0-0.896-0.049-1.326h0.753v1.14h0.024c0.275-0.663,0.789-1.278,1.565-1.278c0.179,0,0.395,0.034,0.525,0.069v0.767
	c-0.155-0.047-0.358-0.069-0.55-0.069c-1.195,0-1.517,1.303-1.517,2.372v2.931h-0.755v-4.604H258.223L258.223,208.146z"/>
</svg>
