<svg xmlns="http://www.w3.org/2000/svg" width="135" height="14.01" viewBox="-14.5 -1.505 135 14.01"><title>Icons / Logos / SpringerNature</title><path fill="#666" d="M57.931 4.073c0-2.696-2.31-3.656-4.468-3.656-1.103 0-2.762 0-3.717.032v11.214h2.797V8.239h.85l.478-.015.023-.003.017.018c.463.741 1.054 1.935 1.243 3.424l1.492.002h.793l.774-.002c-.26-1.716-1.197-3.435-1.735-4.31l-.018-.031.027-.019c.929-.741 1.444-1.887 1.444-3.23zm-2.967.392c0 1.157-.49 1.674-1.588 1.674-.353 0-.584 0-.797-.018l-.036-.002V2.543l.038-.002c.247-.017.57-.017.83-.017 1.294-.001 1.553.743 1.553 1.941zm-7.276 7.198V9.468h-4.015V7.004h3.626V4.835h-3.626V2.622h3.961V.434h-6.638v9.241c0 .011-.016.887.567 1.489.364.378.883.569 1.544.572 2.036.013 4.265-.06 4.581-.073zm-12.539.347c1.087 0 2.722-.279 3.94-.906V5.521H35.4v1.916h1.165v2.291l-.025.01c-.281.101-.951.152-1.231.152-1.478 0-2.053-1.09-2.053-3.883 0-2.455.85-3.648 2.598-3.648.584 0 1.437.26 2.345.715l.757-1.872A6.933 6.933 0 0 0 35.415.186c-1.696 0-2.917.475-3.737 1.452-.814.972-1.207 2.412-1.207 4.404.001 4.35 1.269 5.968 4.678 5.968zm-9.43-.347h2.948V.435h-2.476v7.346L22.842.435h-3.059v11.228h2.463V4.579l3.473 7.084zm-11.188 0h2.794V.452h-2.794v11.211zm-3.508-4.309l-.018-.032.027-.018c.933-.742 1.447-1.889 1.447-3.231 0-2.696-2.308-3.656-4.469-3.656-1.103 0-2.761 0-3.717.032V11.66H7.09V8.24h.85l.478-.015.022-.002.013.017c.465.741 1.056 1.934 1.245 3.423l1.492.002h.791l.778-.002c-.26-1.715-1.199-3.434-1.736-4.309zM9.511 4.465c0 1.157-.491 1.674-1.589 1.674-.351 0-.584 0-.795-.018l-.037-.002V2.543l.037-.002c.247-.017.57-.017.83-.017 1.296-.001 1.554.743 1.554 1.941zm-6.623-.432c0-2.332-1.479-3.616-4.165-3.616-1.103 0-2.761 0-3.717.032v11.214h2.797V8.239h.85c1.272 0 4.235-.408 4.235-4.206zm-2.662.432c0 1.157-.491 1.674-1.589 1.674-.352 0-.584 0-.797-.018l-.036-.003V2.543l.037-.002c.248-.017.571-.017.83-.017C-.033 2.523.226 3.268.226 4.465zM-11.6 2.583c0-.628.407-1.264 1.318-1.264.66 0 1.444.219 2.464.69l1.015-2.026c-1.179-.688-2.388-1.021-3.695-1.021-2.536 0-4.051 1.361-4.051 3.637s1.771 3.156 3.193 3.862c1.032.513 1.923.956 1.923 1.789 0 .72-.642 1.204-1.597 1.204-.765 0-1.699-.283-2.777-.836l-1.017 2.171c1.363.772 2.609 1.115 4.031 1.115 2.634 0 4.208-1.459 4.208-3.899 0-2.309-1.77-3.138-3.191-3.803-.979-.457-1.826-.853-1.826-1.62v.001zm127.771 6.885V7.004h3.626V4.835h-3.626V2.622h3.959V.434h-6.637v9.241c0 .011-.018.887.565 1.489.365.378.884.569 1.544.574 2.035.011 4.265-.062 4.575-.075V9.468h-4.012.006zm-6.046-2.117l-.018-.029.027-.021c.933-.74 1.446-1.887 1.446-3.229 0-2.696-2.308-3.656-4.468-3.656-1.104 0-2.762 0-3.719.033V11.66h2.799V8.239h.849l.478-.015.022-.003.014.018c.465.741 1.058 1.935 1.248 3.424l1.491.002h.788l.78-.002c-.261-1.716-1.198-3.435-1.736-4.31v-.002h-.001zm-1.512-2.886c0 1.156-.492 1.673-1.589 1.673-.351 0-.583 0-.796-.018l-.038-.002V2.542l.038-.002c.247-.017.57-.017.831-.017 1.295-.001 1.554.744 1.554 1.942zm-7.287 3.177V.434h-2.897V7.91c0 1.15-.066 1.854-1.354 1.854-1.235 0-1.441-.577-1.441-1.871V.434h-2.897v7.61c0 2.678 1.299 3.87 4.215 3.87 2.983 0 4.372-1.359 4.372-4.275l.002.003zm-12.42-4.918h2.15V.434h-7.583v2.29h2.521v8.939h2.911V2.724h.001zm-8.544 8.939h3.007L80.672.435h-4.361l-2.736 11.228h2.854l.401-1.783h3.127l.403 1.783h.002zm-.731-3.904h-2.472l1.165-4.882h.115l.008.029 1.184 4.853zm-10.972 3.904h3.306V-.924h-2.689l.111 8.781-4.114-8.781h-3.264v12.587h2.589l-.021-8.688.076.157 4.006 8.531z"/></svg>