<svg xmlns="http://www.w3.org/2000/svg" width="1074" height="358" viewBox="134.585 0.25 1074 358"><title>Artboard 1</title><path fill="#B8E5E5" d="M492.185.415l120.157 119.269L611.937.338z"/><path fill="#D5F0F0" d="M731.69 119.616l-119.348.066L611.937.439z"/><path fill="#B8E5E5" d="M970.298 119.703l-119.348.319L850.543.338z"/><path fill="#D5F0F0" d="M1089.72 119.896l-119.421-.159L1089.163.478l119.423.135z"/><path fill="#87D2D2" d="M253.228.516l120.158 119.168L372.979.439zM970.298 119.697l119.753.074V.518z"/><path fill="#B1DCDD" d="M373.386 119.682H254.043l-.174 119.103z"/><path fill="#B8E5E5" d="M253.87 238.786l-119.285-.034 119.457-119.068h119.345zM492.13 358.25l-118.588-.052 118.867-119.26 119.228.367z"/><path fill="#87D2D2" d="M492.59 238.851l-118.341-.283 118.492-118.886 119.601-.006zM731.081.25L612.342 119.682h118.373L850.543.338z"/><path fill="#E7E7E7" d="M373.386 119.682h119.355L372.979.439z"/><path fill="#D5F0F0" d="M492.589 238.861l119.753.077V119.684z"/><path fill="#E7E7E7" d="M612.342 358.25l.022-119.312-119.774-.087z"/></svg>