<?xml version="1.0" encoding="utf-8"?>
<!-- Generator: Adobe Illustrator 16.0.4, SVG Export Plug-In . SVG Version: 6.00 Build 0)  -->
<!DOCTYPE svg PUBLIC "-//W3C//DTD SVG 1.1//EN" "http://www.w3.org/Graphics/SVG/1.1/DTD/svg11.dtd">
<svg version="1.1" id="Layer_1" xmlns="http://www.w3.org/2000/svg" xmlns:xlink="http://www.w3.org/1999/xlink" x="0px" y="0px"
	 width="1074px" height="358px" viewBox="134.585 0.25 1074 358" enable-background="new 134.585 0.25 1074 358"
	 xml:space="preserve">
<title>Artboard 1</title>
<desc>Created with Sketch.</desc>
<g id="_x2D_Institutions-summary">
	<g id="Artboard-1">
		<polygon id="Fill-1" fill="#B8E5E5" points="492.185,0.415 612.342,119.684 611.937,0.338 		"/>
		<polygon id="Fill-2" fill="#D5F0F0" points="731.69,119.616 612.342,119.682 611.937,0.439 		"/>
		<polygon id="Fill-4" fill="#B8E5E5" points="970.298,119.703 850.95,120.022 850.543,0.338 		"/>
		<polygon id="Fill-6" fill="#D5F0F0" points="1089.72,119.896 970.299,119.737 1089.163,0.478 1208.586,0.613 		"/>
		<polygon id="Fill-10" fill="#87D2D2" points="253.228,0.516 373.386,119.684 372.979,0.439 		"/>
		<polygon id="Fill-11" fill="#87D2D2" points="970.298,119.697 1090.051,119.771 1090.051,0.518 		"/>
		<polygon id="Fill-13" fill="#B1DCDD" points="373.386,119.682 254.043,119.682 253.869,238.785 		"/>
		<polygon id="Fill-14" fill="#B8E5E5" points="253.87,238.786 134.585,238.752 254.042,119.684 373.387,119.684 		"/>
		<polygon id="Fill-16" fill="#B8E5E5" points="492.13,358.25 373.542,358.198 492.409,238.938 611.637,239.305 		"/>
		<polygon id="Fill-19" fill="#87D2D2" points="492.59,238.851 374.249,238.568 492.741,119.682 612.342,119.676 		"/>
		<polygon id="Fill-20" fill="#87D2D2" points="731.081,0.25 612.342,119.682 730.715,119.682 850.543,0.338 		"/>
		<polygon id="Fill-21" fill="#E7E7E7" points="373.386,119.682 492.741,119.682 372.979,0.439 		"/>
		<polygon id="Fill-22" fill="#D5F0F0" points="492.589,238.861 612.342,238.938 612.342,119.684 		"/>
		<polygon id="Fill-24" fill="#E7E7E7" points="612.342,358.25 612.364,238.938 492.59,238.851 		"/>
	</g>
</g>
</svg>
